# xmcd
#
# Track frame offsets:
#	150
#	17581
#	30853
#	53858
#	66013
#	88615
#	107345
#	122570
#	138117
#	159243
#	173581
#	189422
#	209553
#	231565
#	249996
#	269477
#	282412
#
# Disc length: 4061 seconds
#
# Revision: 1
# Processed by: cddbd v1.5.2PL0 Copyright (c) Steve Scherf et al.
# Submitted via: audiograbber 1.83.01
#
DISCID=de0fdb11
DTITLE=Deák-Bill Gyula - Hatvan csapás
DYEAR=2008
DGENRE=
TTITLE0=Hatvan csapás
TTITLE1=A nagy generáció temetésére
TTITLE2=Kéne egy üveg bor
TTITLE3=Lát-e, aki lát
TTITLE4=Jó volna
TTITLE5=Péntek esti blues
TTITLE6=Anyám és apám
TTITLE7=Az országút elõttem
TTITLE8=A titkos lány
TTITLE9=Hóhér blues
TTITLE10=Bill kapitány imája
TTITLE11=Most vagy soha
TTITLE12=Angyalok asztalodon
TTITLE13=Intések fiamnak
TTITLE14=Nem vagyok eladó
TTITLE15=Soha és mindíg
TTITLE16=A zöld, a bíbor, a fekete
EXTD=
EXTT0=
EXTT1=
EXTT2=
EXTT3=
EXTT4=
EXTT5=
EXTT6=
EXTT7=
EXTT8=
EXTT9=
EXTT10=
EXTT11=
EXTT12=
EXTT13=
EXTT14=
EXTT15=
EXTT16=
PLAYORDER=
